<?xml version="1.0" encoding="UTF-8" standalone="no"?>
<svg width="86px" height="78px" viewBox="0 0 86 78" version="1.1" xmlns="http://www.w3.org/2000/svg" xmlns:xlink="http://www.w3.org/1999/xlink">
    <!-- Generator: Sketch 3.8.3 (29802) - http://www.bohemiancoding.com/sketch -->
    <title>Group</title>
    <desc>Created with Sketch.</desc>
    <defs>
        <path d="M6.80209452,0.543277387 C7.811184,0.20005135 8.89254891,0.0138888889 10.0169917,0.0138888889 L64.9830083,0.0138888889 C66.1078681,0.0138888889 67.1893117,0.199954577 68.1982964,0.542982781 L37.5,23.6758084 L6.80209452,0.543277387 Z M0.491091061,6.98764014 C0.188769079,7.94144591 0.0256410256,8.95718887 0.0256410256,10.0110158 L0.0256410256,43.7528731 C0.0256410256,49.2724129 4.49892108,53.75 10.0169917,53.75 L64.9830083,53.75 C70.4965396,53.75 74.974359,49.2741338 74.974359,43.7528731 L74.974359,10.0110158 C74.974359,8.95722327 74.8113053,7.94141051 74.5090574,6.98748666 C74.3467013,7.15539045 74.1691536,7.31284013 73.976688,7.45787331 L40.4396472,32.7298463 C39.5612834,33.3917409 38.5187846,33.6828131 37.5,33.6303251 C36.4812154,33.6828131 35.4387166,33.3917409 34.5603528,32.7298463 L1.02331197,7.45787331 C0.830905083,7.31288433 0.653406868,7.1554864 0.491091061,6.98764014 Z" id="path-1"></path>
        <mask id="mask-2" maskContentUnits="userSpaceOnUse" maskUnits="objectBoundingBox" x="0" y="0" width="74.9487179" height="53.7361111" fill="white">
            <use xlink:href="#path-1"></use>
        </mask>
    </defs>
    <g id="Page-1" stroke="none" stroke-width="1" fill="none" fill-rule="evenodd">
        <g id="messages" transform="translate(-23.000000, -26.000000)" stroke="#55ACEE" fill="#55ACEE">
            <g id="Group" transform="translate(29.000000, 31.000000)">
                <use id="Combined-Shape" mask="url(#mask-2)" stroke-width="2" xlink:href="#path-1"></use>
                <path d="M0.532051282,43.4426972 L0.569320589,69.6262902 C0.569320589,69.6262902 0.360142436,71.5438196 2.09635485,71.5438192 C3.83256727,71.5438188 25.099911,53.0474822 25.099911,53.0474822 L0.532051282,43.4426972 Z" id="Path-22"></path>
            </g>
        </g>
    </g>
</svg>