<?xml version="1.0" encoding="UTF-8" standalone="no"?>
<svg width="73px" height="89px" viewBox="0 0 73 89" version="1.1" xmlns="http://www.w3.org/2000/svg" xmlns:xlink="http://www.w3.org/1999/xlink">
    <!-- Generator: Sketch 3.8.3 (29802) - http://www.bohemiancoding.com/sketch -->
    <title>Group</title>
    <desc>Created with Sketch.</desc>
    <defs></defs>
    <g id="Page-1" stroke="none" stroke-width="1" fill="none" fill-rule="evenodd">
        <g id="notification" transform="translate(-30.000000, -22.000000)" stroke="#55ACEE" fill="#55ACEE">
            <g id="Group" transform="translate(30.000000, 23.000000)">
                <path d="M55.9924083,0.363234127 C60.9914174,0.958665534 61.6343235,4.26783349 61.6343235,4.60695584 C61.6343235,5.25979771 61.5622066,8.85067731 59.8886705,8.85067755 C59.6820698,8.85067758 72.4062966,16.7544513 72.4062963,32.8717611 C72.4062962,39.5099474 67.0502081,53.3751785 67.0502081,53.9373633 C67.0502081,54.4995481 67.7150562,77.9915131 66.2335189,77.9915196 C64.7519815,77.9915261 0.587839982,54.9972268 0.587839981,51.7555376 C0.587839981,48.5138484 15.7746828,35.1348864 15.7746823,34.078065 C15.7746818,33.0212436 20.5741296,20.4576636 24.0410907,15.8397299 C32.7550291,4.23291098 49.5254432,5.70498561 49.5254431,5.70498563 C49.525443,5.70498565 48.5398479,-0.524439513 55.9924083,0.363234127 Z" id="Path-6"></path>
                <path d="M29.516254,74.269765 C31.6756688,74.269765 49.2648834,82.2952146 49.264884,82.2952145 C49.2648846,82.2952143 49.1101906,87.1854599 38.8174605,87.1854599 C30.4980819,87.1854599 27.3568392,74.269765 29.516254,74.269765 Z" id="Path-7"></path>
            </g>
        </g>
    </g>
</svg>