<?xml version="1.0" encoding="UTF-8" standalone="no"?>
<svg width="80px" height="73px" viewBox="0 0 80 73" version="1.1" xmlns="http://www.w3.org/2000/svg" xmlns:xlink="http://www.w3.org/1999/xlink">
    <!-- Generator: Sketch 3.8.3 (29802) - http://www.bohemiancoding.com/sketch -->
    <title>Group</title>
    <desc>Created with Sketch.</desc>
    <defs></defs>
    <g id="Page-1" stroke="none" stroke-width="1" fill="none" fill-rule="evenodd">
        <g id="profile" transform="translate(-27.000000, -30.000000)" stroke="#55ACEE" fill="#55ACEE">
            <g id="Group" transform="translate(28.000000, 31.000000)">
                <path d="M38.5013481,0 C45.846149,0 57.4504143,6.44250008 57.453003,20.2709604 C57.4532524,21.6033688 60.9322991,19.5557903 60.9323001,24.5868073 C60.9323012,29.6178242 58.3461036,31.4447137 56.9881771,31.4447127 C55.6302505,31.4447117 48.3999323,50.4591273 38.5013481,50.4591255 C28.6027638,50.4591238 31.1565471,8.8817842e-16 38.5013481,0 Z" id="Path-10"></path>
                <path d="M21.5013481,0 C28.846149,0 40.4504143,6.44250008 40.453003,20.2709604 C40.4532524,21.6033688 43.9322991,19.5557903 43.9323001,24.5868073 C43.9323012,29.6178242 41.3461036,31.4447137 39.9881771,31.4447127 C38.6302505,31.4447117 31.3999323,50.4591273 21.5013481,50.4591255 C11.6027638,50.4591238 14.1565471,8.8817842e-16 21.5013481,0 Z" id="Path-10" transform="translate(29.466150, 25.229563) scale(-1, 1) translate(-29.466150, -25.229563) "></path>
                <path d="M40.3642096,64.6882629 C40.3448732,62.0790289 38.1209223,59.2945126 38.6747928,59.2945126 C39.9403055,59.2945126 54.1002536,57.6145188 54.1002536,51.1966111 C54.1002536,49.9028227 77.7241224,55.085562 77.7243037,64.052426 C77.7243926,68.4420659 76.5753436,71.106884 76.5753436,71.106884 L38.3120355,71.4061924 C38.3120355,71.4061924 40.389054,68.040745 40.3642096,64.6882629 Z M39.049511,59.2945126 C37.7839983,59.2945126 23.6240501,57.6145188 23.6240501,51.1966111 C23.6240501,49.9028227 0.000181398459,55.085562 0,64.052426 C-8.88018271e-05,68.4420659 1.14896011,71.106884 1.14896011,71.106884 L39.4122683,71.4061924 C39.4122683,71.4061924 40.3150237,59.2945126 39.049511,59.2945126 Z" id="Path-12"></path>
            </g>
        </g>
    </g>
</svg>